<?xml version="1.0" encoding="UTF-8"?>
<!DOCTYPE svg PUBLIC "-//W3C//DTD SVG 1.1//EN" "http://www.w3.org/Graphics/SVG/1.1/DTD/svg11.dtd">
<svg xmlns="http://www.w3.org/2000/svg" version="1.1" width="214px" height="218px" style="shape-rendering:geometricPrecision; text-rendering:geometricPrecision; image-rendering:optimizeQuality; fill-rule:evenodd; clip-rule:evenodd" xmlns:xlink="http://www.w3.org/1999/xlink">
<g><path style="opacity:0.984" fill="#0804ff" d="M 91.5,30.5 C 132.113,27.2114 160.946,43.8781 178,80.5C 189.065,115.073 181.565,144.906 155.5,170C 123.734,193.11 91.0674,194.444 57.5,174C 26.309,148.077 17.4756,115.91 31,77.5C 43.1906,51.4665 63.3572,35.7999 91.5,30.5 Z"/></g>
<g><path style="opacity:1" fill="#fafaff" d="M 87.5,59.5 C 107.51,56.6254 125.344,61.292 141,73.5C 142.326,81.1712 139.159,84.6712 131.5,84C 130.069,83.5348 128.903,82.7014 128,81.5C 127.205,79.0988 126.038,76.9321 124.5,75C 116.372,70.4675 107.706,68.8008 98.5,70C 94.4403,75.2169 89.9403,75.7169 85,71.5C 82.6957,66.8553 83.529,62.8553 87.5,59.5 Z"/></g>
<g><path style="opacity:1" fill="#f9f9ff" d="M 70.5,69.5 C 76.5625,68.2488 80.2292,70.5821 81.5,76.5C 81.4441,79.1113 80.4441,81.278 78.5,83C 75.7796,83.7967 73.2796,84.9633 71,86.5C 60.0712,106.861 62.9046,125.028 79.5,141C 88.1143,147.539 97.7809,150.206 108.5,149C 111.939,144.315 116.273,143.315 121.5,146C 125.515,152.997 123.681,157.497 116,159.5C 92.7952,162.392 74.4618,154.392 61,135.5C 52.4058,120.302 51.4058,104.635 58,88.5C 61.7188,81.6887 65.8854,75.3554 70.5,69.5 Z"/></g>
<g><path style="opacity:1" fill="#f9f9ff" d="M 103.5,76.5 C 112.213,76.3618 115.38,80.3618 113,88.5C 108.979,92.1256 104.645,92.4589 100,89.5C 86.8698,94.1005 81.8698,103.101 85,116.5C 92.6403,129.936 103.14,132.769 116.5,125C 123.103,118.887 124.937,111.721 122,103.5C 126.572,98.1881 131.239,98.1881 136,103.5C 135.58,117.169 129.747,128.002 118.5,136C 100.053,143.296 85.8868,138.463 76,121.5C 70.7707,106.19 74.6041,93.6896 87.5,84C 93.0247,81.5652 98.3581,79.0652 103.5,76.5 Z"/></g>
<g><path style="opacity:1" fill="#faf9ff" d="M 142.5,89.5 C 144.857,89.3367 147.19,89.5034 149.5,90C 151.333,90.5 152.5,91.6667 153,93.5C 156.121,110.162 153.121,125.496 144,139.5C 144.285,145.214 141.618,148.547 136,149.5C 130.374,147.912 128.04,144.245 129,138.5C 140.673,129.654 145.173,117.987 142.5,103.5C 137.271,98.9239 137.271,94.2572 142.5,89.5 Z"/></g>
<g><path style="opacity:1" fill="#faf9ff" d="M 99.5,99.5 C 109.988,98.4874 114.488,103.154 113,113.5C 110.267,118.562 106.1,120.395 100.5,119C 91.511,112.911 91.1777,106.411 99.5,99.5 Z"/></g>
</svg>
